<svg width="745" height="94" viewBox="0 0 745 94" fill="none" xmlns="http://www.w3.org/2000/svg">
<circle cx="23.2" cy="85" r="9" fill="#E1E2E5"/>
<circle cx="735.2" cy="9" r="9" fill="#E1E2E5"/>
<path d="M4.59201 64.728C2.45868 64.888 1.39201 63.9333 1.39201 61.864V59.4C1.39201 58.8987 1.28001 58.5733 1.05601 58.424C0.832012 58.264 0.480012 58.1947 1.2219e-05 58.216V56.536C0.480012 56.5573 0.832012 56.4933 1.05601 56.344C1.28001 56.184 1.39201 55.8533 1.39201 55.352V52.888C1.39201 50.8293 2.45868 49.88 4.59201 50.04V51.704C4.08001 51.64 3.70668 51.6933 3.47201 51.864C3.23735 52.0347 3.12001 52.376 3.12001 52.888V55.352C3.12001 56.376 2.77335 57.048 2.08001 57.368C2.77335 57.7093 3.12001 58.3867 3.12001 59.4V61.864C3.12001 62.376 3.23735 62.7173 3.47201 62.888C3.70668 63.0587 4.08001 63.1173 4.59201 63.064V64.728ZM17.1908 61.624C16.4228 62.68 15.3454 63.208 13.9588 63.208C12.5721 63.208 11.4894 62.68 10.7108 61.624C9.94276 60.568 9.55876 59.16 9.55876 57.4C9.55876 55.64 9.94276 54.232 10.7108 53.176C11.4894 52.12 12.5721 51.592 13.9588 51.592C15.3454 51.592 16.4228 52.12 17.1908 53.176C17.9694 54.232 18.3588 55.64 18.3588 57.4C18.3588 59.16 17.9694 60.568 17.1908 61.624ZM13.9588 61.416C14.7908 61.416 15.4254 61.0693 15.8628 60.376C16.3001 59.6827 16.5188 58.6907 16.5188 57.4C16.5188 56.1093 16.3001 55.1173 15.8628 54.424C15.4254 53.7307 14.7908 53.384 13.9588 53.384C13.1374 53.384 12.5028 53.7307 12.0548 54.424C11.6174 55.1173 11.3988 56.1093 11.3988 57.4C11.3988 58.6907 11.6174 59.6827 12.0548 60.376C12.5028 61.0693 13.1374 61.416 13.9588 61.416ZM27.2689 61.624C26.5009 62.68 25.4236 63.208 24.0369 63.208C22.6502 63.208 21.5676 62.68 20.7889 61.624C20.0209 60.568 19.6369 59.16 19.6369 57.4C19.6369 55.64 20.0209 54.232 20.7889 53.176C21.5676 52.12 22.6502 51.592 24.0369 51.592C25.4236 51.592 26.5009 52.12 27.2689 53.176C28.0476 54.232 28.4369 55.64 28.4369 57.4C28.4369 59.16 28.0476 60.568 27.2689 61.624ZM24.0369 61.416C24.8689 61.416 25.5036 61.0693 25.9409 60.376C26.3782 59.6827 26.5969 58.6907 26.5969 57.4C26.5969 56.1093 26.3782 55.1173 25.9409 54.424C25.5036 53.7307 24.8689 53.384 24.0369 53.384C23.2156 53.384 22.5809 53.7307 22.1329 54.424C21.6956 55.1173 21.4769 56.1093 21.4769 57.4C21.4769 58.6907 21.6956 59.6827 22.1329 60.376C22.5809 61.0693 23.2156 61.416 24.0369 61.416ZM34.0128 56.376C34.8234 56.568 35.4794 56.9467 35.9808 57.512C36.4928 58.0667 36.7488 58.7653 36.7488 59.608C36.7488 60.728 36.3701 61.608 35.6128 62.248C34.8554 62.888 33.9274 63.208 32.8288 63.208C31.9754 63.208 31.2074 63.0107 30.5248 62.616C29.8528 62.2213 29.3674 61.6453 29.0688 60.888L30.6368 59.976C30.9674 60.936 31.6981 61.416 32.8288 61.416C33.4688 61.416 33.9754 61.256 34.3488 60.936C34.7221 60.6053 34.9088 60.1627 34.9088 59.608C34.9088 59.0533 34.7221 58.616 34.3488 58.296C33.9754 57.976 33.4688 57.816 32.8288 57.816H32.4128L31.6768 56.712L34.0928 53.528H29.4048V51.8H36.2848V53.368L34.0128 56.376ZM41.6294 64.728V63.064C42.1414 63.1173 42.5147 63.0587 42.7494 62.888C42.9841 62.7173 43.1014 62.376 43.1014 61.864V59.4C43.1014 58.3867 43.4481 57.7093 44.1414 57.368C43.4481 57.048 43.1014 56.376 43.1014 55.352V52.888C43.1014 52.376 42.9841 52.0347 42.7494 51.864C42.5147 51.6933 42.1414 51.64 41.6294 51.704V50.04C43.7627 49.88 44.8294 50.8293 44.8294 52.888V55.352C44.8294 55.8533 44.9414 56.184 45.1654 56.344C45.3894 56.4933 45.7414 56.5573 46.2214 56.536V58.216C45.7414 58.1947 45.3894 58.264 45.1654 58.424C44.9414 58.5733 44.8294 58.8987 44.8294 59.4V61.864C44.8294 63.9333 43.7627 64.888 41.6294 64.728Z" fill="#525866"/>
<path d="M735.2 6V85H15.2" stroke="#E1E2E5" stroke-width="3" stroke-dasharray="20 20"/>
</svg>