<svg width="851" height="120" viewBox="0 0 851 120" fill="none" xmlns="http://www.w3.org/2000/svg">
<circle cx="9" cy="9" r="9" fill="#E1E2E5"/>
<circle cx="826" cy="111" r="9" fill="#E1E2E5"/>
<path d="M807.392 89.728C805.259 89.888 804.192 88.9333 804.192 86.864V84.4C804.192 83.8987 804.08 83.5733 803.856 83.424C803.632 83.264 803.28 83.1947 802.8 83.216V81.536C803.28 81.5573 803.632 81.4933 803.856 81.344C804.08 81.184 804.192 80.8533 804.192 80.352V77.888C804.192 75.8293 805.259 74.88 807.392 75.04V76.704C806.88 76.64 806.507 76.6933 806.272 76.864C806.037 77.0347 805.92 77.376 805.92 77.888V80.352C805.92 81.376 805.573 82.048 804.88 82.368C805.573 82.7093 805.92 83.3867 805.92 84.4V86.864C805.92 87.376 806.037 87.7173 806.272 87.888C806.507 88.0587 806.88 88.1173 807.392 88.064V89.728ZM819.991 86.624C819.223 87.68 818.145 88.208 816.759 88.208C815.372 88.208 814.289 87.68 813.511 86.624C812.743 85.568 812.359 84.16 812.359 82.4C812.359 80.64 812.743 79.232 813.511 78.176C814.289 77.12 815.372 76.592 816.759 76.592C818.145 76.592 819.223 77.12 819.991 78.176C820.769 79.232 821.159 80.64 821.159 82.4C821.159 84.16 820.769 85.568 819.991 86.624ZM816.759 86.416C817.591 86.416 818.225 86.0693 818.663 85.376C819.1 84.6827 819.319 83.6907 819.319 82.4C819.319 81.1093 819.1 80.1173 818.663 79.424C818.225 78.7307 817.591 78.384 816.759 78.384C815.937 78.384 815.303 78.7307 814.855 79.424C814.417 80.1173 814.199 81.1093 814.199 82.4C814.199 83.6907 814.417 84.6827 814.855 85.376C815.303 86.0693 815.937 86.416 816.759 86.416ZM830.069 86.624C829.301 87.68 828.224 88.208 826.837 88.208C825.45 88.208 824.368 87.68 823.589 86.624C822.821 85.568 822.437 84.16 822.437 82.4C822.437 80.64 822.821 79.232 823.589 78.176C824.368 77.12 825.45 76.592 826.837 76.592C828.224 76.592 829.301 77.12 830.069 78.176C830.848 79.232 831.237 80.64 831.237 82.4C831.237 84.16 830.848 85.568 830.069 86.624ZM826.837 86.416C827.669 86.416 828.304 86.0693 828.741 85.376C829.178 84.6827 829.397 83.6907 829.397 82.4C829.397 81.1093 829.178 80.1173 828.741 79.424C828.304 78.7307 827.669 78.384 826.837 78.384C826.016 78.384 825.381 78.7307 824.933 79.424C824.496 80.1173 824.277 81.1093 824.277 82.4C824.277 83.6907 824.496 84.6827 824.933 85.376C825.381 86.0693 826.016 86.416 826.837 86.416ZM840.883 84.272V85.984H839.603V88H837.747V85.984H832.243V84.272L836.099 76.8H838.099L834.243 84.272H837.747V81.36H839.603V84.272H840.883ZM845.476 89.728V88.064C845.988 88.1173 846.362 88.0587 846.596 87.888C846.831 87.7173 846.948 87.376 846.948 86.864V84.4C846.948 83.3867 847.295 82.7093 847.988 82.368C847.295 82.048 846.948 81.376 846.948 80.352V77.888C846.948 77.376 846.831 77.0347 846.596 76.864C846.362 76.6933 845.988 76.64 845.476 76.704V75.04C847.61 74.88 848.676 75.8293 848.676 77.888V80.352C848.676 80.8533 848.788 81.184 849.012 81.344C849.236 81.4933 849.588 81.5573 850.068 81.536V83.216C849.588 83.1947 849.236 83.264 849.012 83.424C848.788 83.5733 848.676 83.8987 848.676 84.4V86.864C848.676 88.9333 847.61 89.888 845.476 89.728Z" fill="#525866"/>
<path d="M832 111L9 111L9.00001 7" stroke="#DEE2E7" stroke-width="3" stroke-linecap="round" stroke-dasharray="20 20"/>
</svg>