<svg width="28" height="29" viewBox="0 0 28 29" fill="none" xmlns="http://www.w3.org/2000/svg">
<rect width="28" height="29" fill="white"/>
<path d="M6.21172 10.0401L7.96396 11.9071C8.01201 11.9583 8.01201 12.0428 7.96396 12.094L6.21172 13.961C6.13379 14.0441 6 13.9859 6 13.8669V10.1328C6 10.0152 6.13379 9.95565 6.21172 10.0387V10.0401Z" fill="#0133FB"/>
<path d="M17 7V17C19.3111 16.4228 21 14.4189 21 12C21 9.58108 19.3111 7.57721 17 7Z" fill="#0133FB"/>
<path d="M13 8V16C14.7331 15.5382 16 13.9355 16 12.0007C16 10.0659 14.7345 8.4633 13 8.00146V8Z" fill="#0133FB"/>
<path d="M9 9V16C10.7336 15.5962 12 14.193 12 12.5008C12 10.8087 10.7336 9.40539 9 9.00164V9Z" fill="#0133FB"/>
</svg>
