<svg width="268" height="191" viewBox="0 0 268 191" fill="none" xmlns="http://www.w3.org/2000/svg">
<g clip-path="url(#clip0_1_1252)">
<g clip-path="url(#clip1_1_1252)">
<g clip-path="url(#clip2_1_1252)">
<path d="M265.44 173.986V34.2022C265.44 27.2214 259.78 21.5622 252.8 21.5622H99.6979C94.9688 21.5622 90.3541 20.1076 86.4799 17.3956L69.0273 5.17881C64.9031 2.2919 59.9908 0.743408 54.9565 0.743408H14.8707C7.88983 0.743408 2.23071 6.40253 2.23071 13.3834V173.986C2.23071 180.966 7.88983 186.626 14.8707 186.626H252.8C259.78 186.626 265.44 180.966 265.44 173.986Z" stroke="#0E0948" stroke-opacity="0.04" stroke-width="1.48706"/>
<g filter="url(#filter0_di_1_1252)">
<path d="M2.97424 13.3835C2.97424 6.81329 8.30047 1.48706 14.8707 1.48706H54.9565C59.8382 1.48706 64.6017 2.98862 68.6008 5.78807L86.0535 18.0049C90.0527 20.8043 94.8162 22.3059 99.6979 22.3059H252.8C259.37 22.3059 264.697 27.6321 264.697 34.2024V173.986C264.697 180.556 259.37 185.882 252.8 185.882H14.8707C8.30047 185.882 2.97424 180.556 2.97424 173.986V13.3835Z" fill="url(#paint0_linear_1_1252)"/>
</g>
</g>
</g>
</g>
<defs>
<filter id="filter0_di_1_1252" x="0.000125408" y="1.66893e-06" width="267.671" height="190.343" filterUnits="userSpaceOnUse" color-interpolation-filters="sRGB">
<feFlood flood-opacity="0" result="BackgroundImageFix"/>
<feColorMatrix in="SourceAlpha" type="matrix" values="0 0 0 0 0 0 0 0 0 0 0 0 0 0 0 0 0 0 127 0" result="hardAlpha"/>
<feOffset dy="1.48706"/>
<feGaussianBlur stdDeviation="1.48706"/>
<feComposite in2="hardAlpha" operator="out"/>
<feColorMatrix type="matrix" values="0 0 0 0 0.056512 0 0 0 0 0.0368 0 0 0 0 0.2832 0 0 0 0.08 0"/>
<feBlend mode="normal" in2="BackgroundImageFix" result="effect1_dropShadow_1_1252"/>
<feBlend mode="normal" in="SourceGraphic" in2="effect1_dropShadow_1_1252" result="shape"/>
<feColorMatrix in="SourceAlpha" type="matrix" values="0 0 0 0 0 0 0 0 0 0 0 0 0 0 0 0 0 0 127 0" result="hardAlpha"/>
<feOffset/>
<feGaussianBlur stdDeviation="2.97412"/>
<feComposite in2="hardAlpha" operator="arithmetic" k2="-1" k3="1"/>
<feColorMatrix type="matrix" values="0 0 0 0 0.056512 0 0 0 0 0.0368 0 0 0 0 0.2832 0 0 0 0.04 0"/>
<feBlend mode="normal" in2="shape" result="effect2_innerShadow_1_1252"/>
</filter>
<linearGradient id="paint0_linear_1_1252" x1="133.835" y1="1.48706" x2="133.835" y2="185.882" gradientUnits="userSpaceOnUse">
<stop stop-color="white" stop-opacity="0.5"/>
<stop offset="1" stop-color="white" stop-opacity="0.7"/>
</linearGradient>
<clipPath id="clip0_1_1252">
<rect width="267.671" height="190.344" fill="white"/>
</clipPath>
<clipPath id="clip1_1_1252">
<rect width="267.671" height="190.344" fill="white"/>
</clipPath>
<clipPath id="clip2_1_1252">
<rect width="267.671" height="190.344" fill="white"/>
</clipPath>
</defs>
</svg>
