<svg width="334" height="256" viewBox="0 0 334 256" fill="none" xmlns="http://www.w3.org/2000/svg">
<foreignObject x="0" y="2.47955e-05" width="333.101" height="255.774"><div xmlns="http://www.w3.org/1999/xhtml" style="backdrop-filter:blur(2.97px);clip-path:url(#bgblur_1_1_3317_clip_path);height:100%;width:100%"></div></foreignObject><g filter="url(#filter0_dddii_1_3317)" data-figma-bg-blur-radius="5.94824">
<g clip-path="url(#clip0_1_3317)">
<rect x="35.6894" y="23.793" width="261.722" height="184.395" rx="11.8965" fill="url(#paint0_linear_1_3317)" shape-rendering="crispEdges"/>
<g clip-path="url(#clip2_1_3317)">
<path d="M49.0728 33.4587C49.8941 33.4587 50.5598 32.793 50.5598 31.9717C50.5598 31.1504 49.8941 30.4846 49.0728 30.4846C48.2515 30.4846 47.5857 31.1504 47.5857 31.9717C47.5857 32.793 48.2515 33.4587 49.0728 33.4587Z" fill="#22328A" fill-opacity="0.12"/>
<path d="M57.9951 33.4587C58.8164 33.4587 59.4822 32.793 59.4822 31.9717C59.4822 31.1504 58.8164 30.4846 57.9951 30.4846C57.1738 30.4846 56.5081 31.1504 56.5081 31.9717C56.5081 32.793 57.1738 33.4587 57.9951 33.4587Z" fill="#22328A" fill-opacity="0.12"/>
<path d="M66.9175 33.4587C67.7388 33.4587 68.4045 32.793 68.4045 31.9717C68.4045 31.1504 67.7388 30.4846 66.9175 30.4846C66.0962 30.4846 65.4304 31.1504 65.4304 31.9717C65.4304 32.793 66.0962 33.4587 66.9175 33.4587Z" fill="#22328A" fill-opacity="0.12"/>
<path d="M284.028 33.4587C284.849 33.4587 285.515 32.793 285.515 31.9717C285.515 31.1504 284.849 30.4846 284.028 30.4846C283.207 30.4846 282.541 31.1504 282.541 31.9717C282.541 32.793 283.207 33.4587 284.028 33.4587Z" fill="#22328A" fill-opacity="0.12"/>
<path d="M234.955 28.9976H98.1457C96.5032 28.9976 95.1716 30.3291 95.1716 31.9717C95.1716 33.6142 96.5032 34.9458 98.1457 34.9458H234.955C236.598 34.9458 237.929 33.6142 237.929 31.9717C237.929 30.3291 236.598 28.9976 234.955 28.9976Z" fill="#22328A" fill-opacity="0.08"/>
</g>
</g>
</g>
<defs>
<filter id="filter0_dddii_1_3317" x="0" y="2.47955e-05" width="333.101" height="255.774" filterUnits="userSpaceOnUse" color-interpolation-filters="sRGB">
<feFlood flood-opacity="0" result="BackgroundImageFix"/>
<feColorMatrix in="SourceAlpha" type="matrix" values="0 0 0 0 0 0 0 0 0 0 0 0 0 0 0 0 0 0 127 0" result="hardAlpha"/>
<feOffset dy="11.8965"/>
<feGaussianBlur stdDeviation="17.8447"/>
<feComposite in2="hardAlpha" operator="out"/>
<feColorMatrix type="matrix" values="0 0 0 0 0.0705882 0 0 0 0 0.027451 0 0 0 0 0.560784 0 0 0 0.08 0"/>
<feBlend mode="normal" in2="BackgroundImageFix" result="effect1_dropShadow_1_3317"/>
<feColorMatrix in="SourceAlpha" type="matrix" values="0 0 0 0 0 0 0 0 0 0 0 0 0 0 0 0 0 0 127 0" result="hardAlpha"/>
<feOffset dy="1.48706"/>
<feGaussianBlur stdDeviation="1.48706"/>
<feComposite in2="hardAlpha" operator="out"/>
<feColorMatrix type="matrix" values="0 0 0 0 0.054902 0 0 0 0 0.0352941 0 0 0 0 0.282353 0 0 0 0.08 0"/>
<feBlend mode="normal" in2="effect1_dropShadow_1_3317" result="effect2_dropShadow_1_3317"/>
<feColorMatrix in="SourceAlpha" type="matrix" values="0 0 0 0 0 0 0 0 0 0 0 0 0 0 0 0 0 0 127 0" result="hardAlpha"/>
<feMorphology radius="1.48706" operator="dilate" in="SourceAlpha" result="effect3_dropShadow_1_3317"/>
<feOffset/>
<feComposite in2="hardAlpha" operator="out"/>
<feColorMatrix type="matrix" values="0 0 0 0 0.054902 0 0 0 0 0.0352941 0 0 0 0 0.282353 0 0 0 0.04 0"/>
<feBlend mode="normal" in2="effect2_dropShadow_1_3317" result="effect3_dropShadow_1_3317"/>
<feBlend mode="normal" in="SourceGraphic" in2="effect3_dropShadow_1_3317" result="shape"/>
<feColorMatrix in="SourceAlpha" type="matrix" values="0 0 0 0 0 0 0 0 0 0 0 0 0 0 0 0 0 0 127 0" result="hardAlpha"/>
<feOffset dy="-4.46118"/>
<feGaussianBlur stdDeviation="2.23059"/>
<feComposite in2="hardAlpha" operator="arithmetic" k2="-1" k3="1"/>
<feColorMatrix type="matrix" values="0 0 0 0 0.0745098 0 0 0 0 0.152941 0 0 0 0 0.423529 0 0 0 0.04 0"/>
<feBlend mode="normal" in2="shape" result="effect4_innerShadow_1_3317"/>
<feColorMatrix in="SourceAlpha" type="matrix" values="0 0 0 0 0 0 0 0 0 0 0 0 0 0 0 0 0 0 127 0" result="hardAlpha"/>
<feOffset dy="-8.92235"/>
<feGaussianBlur stdDeviation="0.371765"/>
<feComposite in2="hardAlpha" operator="arithmetic" k2="-1" k3="1"/>
<feColorMatrix type="matrix" values="0 0 0 0 0.0745098 0 0 0 0 0.152941 0 0 0 0 0.427451 0 0 0 0.04 0"/>
<feBlend mode="normal" in2="effect4_innerShadow_1_3317" result="effect5_innerShadow_1_3317"/>
</filter>
<clipPath id="bgblur_1_1_3317_clip_path" transform="translate(0 -2.47955e-05)"><rect x="35.6894" y="23.793" width="261.722" height="184.395" rx="11.8965"/>
</clipPath><linearGradient id="paint0_linear_1_3317" x1="166.551" y1="23.793" x2="166.551" y2="208.188" gradientUnits="userSpaceOnUse">
<stop stop-color="white" stop-opacity="0.7"/>
<stop offset="1" stop-color="white"/>
</linearGradient>
<clipPath id="clip0_1_3317">
<rect x="35.6894" y="23.793" width="261.722" height="184.395" rx="11.8965" fill="white"/>
</clipPath>
<clipPath id="clip2_1_3317">
<rect width="237.929" height="173.986" fill="white" transform="translate(47.5858 28.9976)"/>
</clipPath>
</defs>
</svg>
