<svg width="155" height="155" viewBox="0 0 155 155" fill="none" xmlns="http://www.w3.org/2000/svg">
<g filter="url(#filter0_d_1_3024)">
<path d="M77.5 147C115.884 147 147 115.884 147 77.5C147 39.1162 115.884 8 77.5 8C39.1162 8 8 39.1162 8 77.5C8 115.884 39.1162 147 77.5 147Z" fill="#EFF1F5"/>
<path d="M77.4991 8.5C114.672 8.5 144.807 38.6342 144.807 75.8066C144.807 112.979 114.672 143.114 77.4991 143.114C40.3267 143.114 10.1925 112.979 10.1925 75.8066C10.1927 38.6343 40.3268 8.50018 77.4991 8.5Z" fill="#FBFCFF" stroke="#EEEFF4"/>
<g filter="url(#filter1_d_1_3024)">
<path d="M123.85 77.5002C123.643 71.9029 118.944 67.5322 113.329 67.7222C110.842 67.8086 108.475 68.8278 106.678 70.5381C98.766 65.1481 89.4717 62.194 79.9183 61.9867L84.4272 40.3057L99.3016 43.4326C99.7162 47.2505 103.137 50.0146 106.955 49.6C110.773 49.1854 113.537 45.7648 113.122 41.9469C112.707 38.129 109.287 35.3649 105.469 35.7795C103.275 36.0041 101.306 37.2825 100.217 39.1828L83.1834 35.7795C82.0259 35.5204 80.8684 36.2459 80.6093 37.4207C80.6093 37.438 80.6093 37.4379 80.6093 37.4552L75.4784 61.5721C65.804 61.7275 56.3888 64.6989 48.3729 70.1235C44.2958 66.2883 37.8693 66.4783 34.0341 70.5727C30.1989 74.6497 30.3889 81.0763 34.4833 84.9115C35.2779 85.6543 36.1935 86.2935 37.2128 86.7427C37.1437 87.762 37.1437 88.7812 37.2128 89.8005C37.2128 105.366 55.3523 118.029 77.7242 118.029C100.096 118.029 118.236 105.383 118.236 89.8005C118.305 88.7812 118.305 87.762 118.236 86.7427C121.725 84.9979 123.919 81.4045 123.85 77.5002ZM54.3503 84.4623C54.3503 80.6271 57.4772 77.5002 61.3124 77.5002C65.1476 77.5002 68.2745 80.6271 68.2745 84.4623C68.2745 88.2975 65.1476 91.4244 61.3124 91.4244C57.4599 91.3899 54.3503 88.2975 54.3503 84.4623ZM94.7235 103.569C89.7827 107.283 83.7362 109.184 77.5515 108.925C71.3668 109.184 65.3203 107.283 60.3795 103.569C59.723 102.775 59.8439 101.582 60.6386 100.926C61.3296 100.356 62.3144 100.356 63.0227 100.926C67.2034 103.984 72.2997 105.539 77.4824 105.297C82.6651 105.573 87.7787 104.087 92.0112 101.064C92.7714 100.321 94.0152 100.339 94.7581 101.099C95.5009 101.859 95.4836 103.103 94.7235 103.846V103.569ZM93.4278 91.9254C89.5926 91.9254 86.5176 88.5394 86.5176 84.7042C86.5176 80.869 89.6445 77.7421 93.4797 77.7421C97.3148 77.7421 100.442 80.869 100.442 84.7042C100.597 88.5394 97.6085 91.7699 93.7733 91.9254C93.6524 91.9254 93.5488 91.9254 93.4278 91.9254Z" fill="#708DFF"/>
</g>
</g>
<defs>
<filter id="filter0_d_1_3024" x="0" y="0" width="155" height="155" filterUnits="userSpaceOnUse" color-interpolation-filters="sRGB">
<feFlood flood-opacity="0" result="BackgroundImageFix"/>
<feColorMatrix in="SourceAlpha" type="matrix" values="0 0 0 0 0 0 0 0 0 0 0 0 0 0 0 0 0 0 127 0" result="hardAlpha"/>
<feOffset/>
<feGaussianBlur stdDeviation="4"/>
<feComposite in2="hardAlpha" operator="out"/>
<feColorMatrix type="matrix" values="0 0 0 0 0 0 0 0 0 0 0 0 0 0 0 0 0 0 0.15 0"/>
<feBlend mode="normal" in2="BackgroundImageFix" result="effect1_dropShadow_1_3024"/>
<feBlend mode="normal" in="SourceGraphic" in2="effect1_dropShadow_1_3024" result="shape"/>
</filter>
<filter id="filter1_d_1_3024" x="24.2803" y="28.7271" width="106.572" height="96.3018" filterUnits="userSpaceOnUse" color-interpolation-filters="sRGB">
<feFlood flood-opacity="0" result="BackgroundImageFix"/>
<feColorMatrix in="SourceAlpha" type="matrix" values="0 0 0 0 0 0 0 0 0 0 0 0 0 0 0 0 0 0 127 0" result="hardAlpha"/>
<feOffset/>
<feGaussianBlur stdDeviation="3.5"/>
<feComposite in2="hardAlpha" operator="out"/>
<feColorMatrix type="matrix" values="0 0 0 0 0 0 0 0 0 0 0 0 0 0 0 0 0 0 0.1 0"/>
<feBlend mode="normal" in2="BackgroundImageFix" result="effect1_dropShadow_1_3024"/>
<feBlend mode="normal" in="SourceGraphic" in2="effect1_dropShadow_1_3024" result="shape"/>
</filter>
</defs>
</svg>
