<svg width="22" height="15" viewBox="0 0 22 15" fill="none" xmlns="http://www.w3.org/2000/svg">
<path d="M0.352913 4.21114L3.27365 7.13187C3.35376 7.21198 3.35376 7.34405 3.27365 7.42416L0.352913 10.3449C0.223006 10.4748 0 10.3839 0 10.1977V4.3562C0 4.17216 0.223006 4.07906 0.352913 4.20897V4.21114Z" fill="#0033FA"/>
<path d="M15.5043 0V14.5539C18.7455 13.7138 21.1141 10.7974 21.1141 7.27694C21.1141 3.75647 18.7455 0.840063 15.5043 0Z" fill="#0033FA"/>
<path d="M9.44637 1.33371V13.2223C12.0943 12.536 14.0299 10.1544 14.0299 7.27911C14.0299 4.40384 12.0965 2.02222 9.44637 1.33588V1.33371Z" fill="#0033FA"/>
<path d="M4.61169 2.66092V11.8951C6.66854 11.3625 8.17113 9.51133 8.17113 7.2791C8.17113 5.04687 6.66854 3.1957 4.61169 2.66308V2.66092Z" fill="#0033FA"/>
</svg>
