<svg width="76" height="20" viewBox="0 0 76 20" fill="none" xmlns="http://www.w3.org/2000/svg">
<path d="M11.9384 2.0482L15.6646 0V19.9385H11.9384V2.0482Z" fill="#0033FA"/>
<path d="M32.7798 5.38461H36.506V19.9385H32.7798V5.38461Z" fill="#0033FA"/>
<path d="M53.7684 5.38461C57.8734 5.38461 61.0453 8.61496 61.0453 12.6616C61.0453 16.7081 57.8734 19.9385 53.7684 19.9385C49.6633 19.9385 46.4914 16.7081 46.4914 12.6616C46.4914 8.61496 49.7218 5.38461 53.7684 5.38461ZM53.7684 16.2426C55.7473 16.2426 57.3192 14.6123 57.3192 12.6637C57.3192 10.7151 55.7473 9.11293 53.7684 9.11293C51.7895 9.11293 50.2176 10.6848 50.2176 12.6637C50.2176 14.6426 51.7895 16.2426 53.7684 16.2426Z" fill="#0033FA"/>
<path d="M69.0779 5.47338L66.5772 7.97409C66.4494 8.10183 66.2286 8.01089 66.2286 7.82902V5.38461H62.5024V19.9385H66.2286V9.11077H67.9802C69.9591 9.11077 71.5613 10.6826 71.5613 12.6616V19.9385H75.2571V12.6616C75.2571 8.98519 72.6351 5.99084 69.0779 5.47338Z" fill="#0033FA"/>
<path d="M44.6143 5.38461L42.0248 7.97408C41.8971 8.10183 41.6762 8.01089 41.6762 7.82902V5.38245H37.9631V19.9363H41.6892V9.1086H45.764V5.38245H44.6165L44.6143 5.38461Z" fill="#0033FA"/>
<path d="M10.5268 16.2427H7.27695C5.29804 16.2427 3.72617 14.6123 3.72617 12.6637C3.72617 10.7151 5.29804 9.11297 7.27695 9.11297H10.5268V5.38681H7.27695C3.23036 5.38681 1.14441e-05 8.61716 1.14441e-05 12.6637C1.14441e-05 16.7103 3.23036 19.9407 7.27695 19.9407H10.5268V16.2448V16.2427Z" fill="#0033FA"/>
<path d="M27.0466 6.51913L25.9121 5.38461H24.3229C20.2763 5.38461 17.0459 8.61496 17.0459 12.6616C17.0459 16.7081 20.2763 19.9385 24.3229 19.9385C24.6779 19.9385 25.0114 19.9125 25.3361 19.8735L27.8542 17.3555C27.9819 17.2278 28.2027 17.3187 28.2027 17.5006V19.9385H31.5998V11.0724L27.0466 6.51913ZM27.9018 12.8369V16.2426H24.3207C22.4652 16.2426 20.9669 14.8093 20.7872 13.0253C20.7742 12.9062 20.7699 12.785 20.7699 12.6637C20.7699 12.5425 20.7764 12.4169 20.7872 12.2978C20.9669 10.4943 22.4652 9.11293 24.3207 9.11293H27.9018V12.8391V12.8369Z" fill="#0033FA"/>
</svg>
