<svg width="268" height="341" viewBox="0 0 268 341" fill="none" xmlns="http://www.w3.org/2000/svg">
<g clip-path="url(#clip0_337_4691)">
<g clip-path="url(#clip1_337_4691)">
<g clip-path="url(#clip2_337_4691)">
<g clip-path="url(#clip3_337_4691)">
<g filter="url(#filter0_diii_337_4691)">
<path d="M252.8 -17.5129H14.8705C8.30029 -17.5129 2.97406 -12.1867 2.97406 -5.61647V587.72C2.97406 594.29 8.30029 599.616 14.8705 599.616H252.8C259.37 599.616 264.696 594.29 264.696 587.72V-5.61647C264.696 -12.1867 259.37 -17.5129 252.8 -17.5129Z" fill="url(#paint0_linear_337_4691)"/>
</g>
<path d="M75.8399 166.882H37.1764C34.7125 166.882 32.7152 168.88 32.7152 171.344C32.7152 173.807 34.7125 175.805 37.1764 175.805H75.8399C78.3038 175.805 80.3011 173.807 80.3011 171.344C80.3011 168.88 78.3038 166.882 75.8399 166.882Z" fill="#708DFF"/>
<path d="M52.047 206.289H37.1764C35.1232 206.289 33.4587 207.954 33.4587 210.007C33.4587 212.06 35.1232 213.725 37.1764 213.725H52.047C54.1002 213.725 55.7646 212.06 55.7646 210.007C55.7646 207.954 54.1002 206.289 52.047 206.289Z" stroke="#D2DBFF" stroke-width="1.48706"/>
<path d="M52.047 208.52H37.1764C36.3551 208.52 35.6893 209.186 35.6893 210.007C35.6893 210.828 36.3551 211.494 37.1764 211.494H52.047C52.8683 211.494 53.534 210.828 53.534 210.007C53.534 209.186 52.8683 208.52 52.047 208.52Z" fill="#D2DBFF"/>
<path d="M102.607 186.214H34.2023C33.381 186.214 32.7152 186.88 32.7152 187.701C32.7152 188.522 33.381 189.188 34.2023 189.188H102.607C103.428 189.188 104.094 188.522 104.094 187.701C104.094 186.88 103.428 186.214 102.607 186.214Z" fill="#22328A" fill-opacity="0.08"/>
<path d="M114.503 193.649H34.2023C33.381 193.649 32.7152 194.315 32.7152 195.136C32.7152 195.958 33.381 196.624 34.2023 196.624H114.503C115.325 196.624 115.991 195.958 115.991 195.136C115.991 194.315 115.325 193.649 114.503 193.649Z" fill="#22328A" fill-opacity="0.08"/>
<path d="M234.955 160.934H148.706C145.421 160.934 142.758 163.597 142.758 166.882V214.468C142.758 217.753 145.421 220.416 148.706 220.416H234.955C238.24 220.416 240.903 217.753 240.903 214.468V166.882C240.903 163.597 238.24 160.934 234.955 160.934Z" fill="#22328A" fill-opacity="0.04"/>
<path d="M118.965 244.209H32.7152C29.4301 244.209 26.767 246.873 26.767 250.158V297.744C26.767 301.029 29.4301 303.692 32.7152 303.692H118.965C122.25 303.692 124.913 301.029 124.913 297.744V250.158C124.913 246.873 122.25 244.209 118.965 244.209Z" fill="#22328A" fill-opacity="0.04"/>
<path d="M182.908 250.158H156.141C153.677 250.158 151.68 252.155 151.68 254.619C151.68 257.083 153.677 259.08 156.141 259.08H182.908C185.372 259.08 187.369 257.083 187.369 254.619C187.369 252.155 185.372 250.158 182.908 250.158Z" fill="#708DFF"/>
<path d="M171.012 289.565H156.141C154.088 289.565 152.423 291.229 152.423 293.282C152.423 295.336 154.088 297 156.141 297H171.012C173.065 297 174.729 295.336 174.729 293.282C174.729 291.229 173.065 289.565 171.012 289.565Z" stroke="#D2DBFF" stroke-width="1.48706"/>
<path d="M171.012 291.795H156.141C155.32 291.795 154.654 292.461 154.654 293.282C154.654 294.104 155.32 294.769 156.141 294.769H171.012C171.833 294.769 172.499 294.104 172.499 293.282C172.499 292.461 171.833 291.795 171.012 291.795Z" fill="#D2DBFF"/>
<path d="M221.572 269.489H153.167C152.346 269.489 151.68 270.155 151.68 270.976C151.68 271.798 152.346 272.463 153.167 272.463H221.572C222.393 272.463 223.059 271.798 223.059 270.976C223.059 270.155 222.393 269.489 221.572 269.489Z" fill="#22328A" fill-opacity="0.08"/>
<path d="M233.468 276.925H153.167C152.346 276.925 151.68 277.59 151.68 278.412C151.68 279.233 152.346 279.899 153.167 279.899H233.468C234.289 279.899 234.955 279.233 234.955 278.412C234.955 277.59 234.289 276.925 233.468 276.925Z" fill="#22328A" fill-opacity="0.08"/>
<path d="M89.2234 24.1248H38.6634C35.3783 24.1248 32.7152 26.7879 32.7152 30.073C32.7152 33.3581 35.3783 36.0212 38.6634 36.0212H89.2234C92.5086 36.0212 95.1717 33.3581 95.1717 30.073C95.1717 26.7879 92.5086 24.1248 89.2234 24.1248Z" fill="#708DFF"/>
<path d="M52.047 62.7881H37.1764C34.7125 62.7881 32.7152 64.7854 32.7152 67.2493C32.7152 69.7131 34.7125 71.7104 37.1764 71.7104H52.047C54.5108 71.7104 56.5082 69.7131 56.5082 67.2493C56.5082 64.7854 54.5108 62.7881 52.047 62.7881Z" fill="#ACBDFF"/>
<path d="M117.478 43.4563H34.2023C33.381 43.4563 32.7152 44.1221 32.7152 44.9434C32.7152 45.7646 33.381 46.4304 34.2023 46.4304H117.478C118.299 46.4304 118.965 45.7646 118.965 44.9434C118.965 44.1221 118.299 43.4563 117.478 43.4563Z" fill="#22328A" fill-opacity="0.08"/>
<path d="M90.7105 50.8916H34.2023C33.381 50.8916 32.7152 51.5574 32.7152 52.3787C32.7152 53.1999 33.381 53.8657 34.2023 53.8657H90.7105C91.5318 53.8657 92.1976 53.1999 92.1976 52.3787C92.1976 51.5574 91.5318 50.8916 90.7105 50.8916Z" fill="#22328A" fill-opacity="0.08"/>
<path d="M32.7152 94.0164V102.939C32.7152 105.403 34.7125 107.4 37.1764 107.4H105.581C108.045 107.4 110.042 105.403 110.042 102.939V94.0164C110.042 91.5525 108.045 89.5552 105.581 89.5552H37.1764C34.7125 89.5552 32.7152 91.5525 32.7152 94.0164Z" fill="#22328A" fill-opacity="0.04"/>
<path d="M181.421 24.1248H148.706C145.421 24.1248 142.758 26.7879 142.758 30.073V89.5553C142.758 92.8405 145.421 95.5036 148.706 95.5036H181.421C184.706 95.5036 187.369 92.8405 187.369 89.5553V30.073C187.369 26.7879 184.706 24.1248 181.421 24.1248Z" fill="#22328A" fill-opacity="0.04"/>
<path d="M234.955 24.1248H202.24C198.955 24.1248 196.292 26.7879 196.292 30.073V113.348C196.292 116.633 198.955 119.297 202.24 119.297H234.955C238.24 119.297 240.904 116.633 240.904 113.348V30.073C240.904 26.7879 238.24 24.1248 234.955 24.1248Z" fill="#22328A" fill-opacity="0.04"/>
</g>
</g>
</g>
</g>
<defs>
<filter id="filter0_diii_337_4691" x="-5.76973e-05" y="-21.9741" width="267.671" height="626.052" filterUnits="userSpaceOnUse" color-interpolation-filters="sRGB">
<feFlood flood-opacity="0" result="BackgroundImageFix"/>
<feColorMatrix in="SourceAlpha" type="matrix" values="0 0 0 0 0 0 0 0 0 0 0 0 0 0 0 0 0 0 127 0" result="hardAlpha"/>
<feOffset dy="1.48706"/>
<feGaussianBlur stdDeviation="1.48706"/>
<feComposite in2="hardAlpha" operator="out"/>
<feColorMatrix type="matrix" values="0 0 0 0 0.056512 0 0 0 0 0.0368 0 0 0 0 0.2832 0 0 0 0.08 0"/>
<feBlend mode="normal" in2="BackgroundImageFix" result="effect1_dropShadow_337_4691"/>
<feBlend mode="normal" in="SourceGraphic" in2="effect1_dropShadow_337_4691" result="shape"/>
<feColorMatrix in="SourceAlpha" type="matrix" values="0 0 0 0 0 0 0 0 0 0 0 0 0 0 0 0 0 0 127 0" result="hardAlpha"/>
<feOffset/>
<feGaussianBlur stdDeviation="2.97412"/>
<feComposite in2="hardAlpha" operator="arithmetic" k2="-1" k3="1"/>
<feColorMatrix type="matrix" values="0 0 0 0 0.056512 0 0 0 0 0.0368 0 0 0 0 0.2832 0 0 0 0.04 0"/>
<feBlend mode="normal" in2="shape" result="effect2_innerShadow_337_4691"/>
<feColorMatrix in="SourceAlpha" type="matrix" values="0 0 0 0 0 0 0 0 0 0 0 0 0 0 0 0 0 0 127 0" result="hardAlpha"/>
<feOffset dy="-8.92235"/>
<feGaussianBlur stdDeviation="0.371765"/>
<feComposite in2="hardAlpha" operator="arithmetic" k2="-1" k3="1"/>
<feColorMatrix type="matrix" values="0 0 0 0 0.964706 0 0 0 0 0.972549 0 0 0 0 0.980392 0 0 0 1 0"/>
<feBlend mode="normal" in2="effect2_innerShadow_337_4691" result="effect3_innerShadow_337_4691"/>
<feColorMatrix in="SourceAlpha" type="matrix" values="0 0 0 0 0 0 0 0 0 0 0 0 0 0 0 0 0 0 127 0" result="hardAlpha"/>
<feOffset dy="-4.46118"/>
<feGaussianBlur stdDeviation="2.23059"/>
<feComposite in2="hardAlpha" operator="arithmetic" k2="-1" k3="1"/>
<feColorMatrix type="matrix" values="0 0 0 0 0.92549 0 0 0 0 0.937255 0 0 0 0 0.952941 0 0 0 1 0"/>
<feBlend mode="normal" in2="effect3_innerShadow_337_4691" result="effect4_innerShadow_337_4691"/>
</filter>
<linearGradient id="paint0_linear_337_4691" x1="133.835" y1="-17.5129" x2="133.835" y2="599.616" gradientUnits="userSpaceOnUse">
<stop stop-color="white" stop-opacity="0.95"/>
<stop offset="1" stop-color="white"/>
</linearGradient>
<clipPath id="clip0_337_4691">
<rect width="267.671" height="340.536" fill="white"/>
</clipPath>
<clipPath id="clip1_337_4691">
<rect width="267.671" height="379.2" fill="white" transform="translate(0 -19)"/>
</clipPath>
<clipPath id="clip2_337_4691">
<rect width="267.671" height="379.2" fill="white" transform="translate(0 -19)"/>
</clipPath>
<clipPath id="clip3_337_4691">
<rect width="267.671" height="379.2" fill="white" transform="translate(0 -19)"/>
</clipPath>
</defs>
</svg>