<svg width="402" height="256" viewBox="0 0 402 256" fill="none" xmlns="http://www.w3.org/2000/svg">
<rect x="68.2999" y="54.4517" width="2.97412" height="101.12" rx="1.48706" fill="#D9D9D9"/>
<rect x="69.0435" y="55.1952" width="1.48706" height="99.6329" rx="0.743529" stroke="#0E0948" stroke-opacity="0.04" stroke-width="1.48706"/>
<rect x="80.1964" y="54.4517" width="118.593" height="101.12" rx="5.94824" fill="url(#paint0_linear_337_6699)"/>
<rect x="80.1964" y="54.4517" width="118.593" height="101.12" rx="5.94824" fill="url(#paint1_radial_337_6699)"/>
<rect x="80.9399" y="55.1952" width="117.106" height="99.6329" rx="5.20471" stroke="#0E0948" stroke-opacity="0.04" stroke-width="1.48706"/>
<rect x="207.712" y="54.4517" width="92.5694" height="101.12" rx="5.94824" fill="url(#paint2_linear_337_6699)"/>
<rect x="207.712" y="54.4517" width="92.5694" height="101.12" rx="5.94824" fill="url(#paint3_radial_337_6699)"/>
<rect x="208.455" y="55.1952" width="91.0824" height="99.6329" rx="5.20471" stroke="#0E0948" stroke-opacity="0.04" stroke-width="1.48706"/>
<foreignObject x="-120.48" y="51.4775" width="147.219" height="147.219"><div xmlns="http://www.w3.org/1999/xhtml" style="backdrop-filter:blur(1.49px);clip-path:url(#bgblur_0_337_6699_clip_path);height:100%;width:100%"></div></foreignObject><rect data-figma-bg-blur-radius="2.97412" x="-116.762" y="55.1952" width="139.784" height="139.784" rx="11.1529" fill="url(#paint4_linear_337_6699)" stroke="#E1E7FF" stroke-width="1.48706"/>
<foreignObject x="44.5845" y="51.4775" width="147.219" height="147.219"><div xmlns="http://www.w3.org/1999/xhtml" style="backdrop-filter:blur(1.49px);clip-path:url(#bgblur_1_337_6699_clip_path);height:100%;width:100%"></div></foreignObject><rect data-figma-bg-blur-radius="2.97412" x="48.3021" y="55.1952" width="139.784" height="139.784" rx="11.1529" fill="url(#paint5_linear_337_6699)" stroke="#E1E7FF" stroke-width="1.48706"/>
<foreignObject x="209.647" y="51.4775" width="147.219" height="147.219"><div xmlns="http://www.w3.org/1999/xhtml" style="backdrop-filter:blur(1.49px);clip-path:url(#bgblur_2_337_6699_clip_path);height:100%;width:100%"></div></foreignObject><rect data-figma-bg-blur-radius="2.97412" x="213.365" y="55.1952" width="139.784" height="139.784" rx="11.1529" fill="url(#paint6_linear_337_6699)" stroke="#E1E7FF" stroke-width="1.48706"/>
<foreignObject x="374.711" y="51.4775" width="147.219" height="147.219"><div xmlns="http://www.w3.org/1999/xhtml" style="backdrop-filter:blur(1.49px);clip-path:url(#bgblur_3_337_6699_clip_path);height:100%;width:100%"></div></foreignObject><rect data-figma-bg-blur-radius="2.97412" x="378.429" y="55.1952" width="139.784" height="139.784" rx="11.1529" fill="url(#paint7_linear_337_6699)" stroke="#E1E7FF" stroke-width="1.48706"/>
<foreignObject x="26.3536" y="2.47955e-05" width="333.101" height="255.774"><div xmlns="http://www.w3.org/1999/xhtml" style="backdrop-filter:blur(2.97px);clip-path:url(#bgblur_5_337_6699_clip_path);height:100%;width:100%"></div></foreignObject><g filter="url(#filter4_dddii_337_6699)" data-figma-bg-blur-radius="5.94824">
<g clip-path="url(#clip4_337_6699)">
<rect x="62.043" y="23.793" width="261.722" height="184.395" rx="11.8965" fill="url(#paint8_linear_337_6699)" shape-rendering="crispEdges"/>
<g clip-path="url(#clip6_337_6699)">
<path d="M79.8875 134.579C79.8875 129.651 83.8821 125.656 88.8098 125.656H296.998C301.926 125.656 305.92 129.651 305.92 134.579V202.984H79.8875V134.579Z" fill="url(#paint9_linear_337_6699)" fill-opacity="0.06"/>
<path d="M75.4263 33.4587C76.2475 33.4587 76.9133 32.793 76.9133 31.9717C76.9133 31.1504 76.2475 30.4846 75.4263 30.4846C74.605 30.4846 73.9392 31.1504 73.9392 31.9717C73.9392 32.793 74.605 33.4587 75.4263 33.4587Z" fill="#22328A" fill-opacity="0.12"/>
<path d="M84.3486 33.4587C85.1699 33.4587 85.8357 32.793 85.8357 31.9717C85.8357 31.1504 85.1699 30.4846 84.3486 30.4846C83.5274 30.4846 82.8616 31.1504 82.8616 31.9717C82.8616 32.793 83.5274 33.4587 84.3486 33.4587Z" fill="#22328A" fill-opacity="0.12"/>
<path d="M93.271 33.4587C94.0923 33.4587 94.7581 32.793 94.7581 31.9717C94.7581 31.1504 94.0923 30.4846 93.271 30.4846C92.4497 30.4846 91.7839 31.1504 91.7839 31.9717C91.7839 32.793 92.4497 33.4587 93.271 33.4587Z" fill="#22328A" fill-opacity="0.12"/>
<path d="M310.382 33.4587C311.203 33.4587 311.869 32.793 311.869 31.9717C311.869 31.1504 311.203 30.4846 310.382 30.4846C309.56 30.4846 308.895 31.1504 308.895 31.9717C308.895 32.793 309.56 33.4587 310.382 33.4587Z" fill="#22328A" fill-opacity="0.12"/>
<path d="M261.309 28.9976H124.499C122.857 28.9976 121.525 30.3291 121.525 31.9717C121.525 33.6142 122.857 34.9458 124.499 34.9458H261.309C262.951 34.9458 264.283 33.6142 264.283 31.9717C264.283 30.3291 262.951 28.9976 261.309 28.9976Z" fill="#22328A" fill-opacity="0.08"/>
<g clip-path="url(#clip7_337_6699)">
<g clip-path="url(#clip8_337_6699)">
<g clip-path="url(#clip9_337_6699)">
<path d="M183.92 186.872V147.441C183.92 145.472 182.324 143.875 180.355 143.875H137.167C135.832 143.875 134.531 143.465 133.438 142.7L128.515 139.254C127.351 138.439 125.966 138.003 124.546 138.003H113.238C111.269 138.003 109.672 139.599 109.672 141.568V186.872C109.672 188.841 111.269 190.438 113.238 190.438H180.355C182.324 190.438 183.92 188.841 183.92 186.872Z" stroke="#0E0948" stroke-opacity="0.04" stroke-width="0.419479"/>
<g filter="url(#filter5_di_337_6699)">
<path d="M109.882 141.568C109.882 139.715 111.384 138.212 113.238 138.212H124.545C125.922 138.212 127.266 138.636 128.394 139.426L133.317 142.872C134.446 143.662 135.789 144.085 137.166 144.085H180.354C182.208 144.085 183.71 145.588 183.71 147.441V186.872C183.71 188.725 182.208 190.228 180.354 190.228H113.238C111.384 190.228 109.882 188.725 109.882 186.872V141.568Z" fill="url(#paint10_linear_337_6699)"/>
</g>
</g>
</g>
</g>
<foreignObject x="104.848" y="149.958" width="83.8957" height="49.9179"><div xmlns="http://www.w3.org/1999/xhtml" style="backdrop-filter:blur(2.1px);clip-path:url(#bgblur_10_337_6699_clip_path);height:100%;width:100%"></div></foreignObject><g filter="url(#filter6_iii_337_6699)" data-figma-bg-blur-radius="4.19479">
<rect x="109.043" y="154.153" width="75.5062" height="37.3336" rx="3.35583" fill="url(#paint11_linear_337_6699)"/>
<rect x="109.043" y="154.153" width="75.5062" height="37.3336" rx="3.35583" fill="url(#paint12_radial_337_6699)"/>
<rect x="109.253" y="154.363" width="75.0867" height="36.9141" rx="3.14609" stroke="#E0E1E5" stroke-width="0.419479"/>
<mask id="path-22-inside-1_337_6699" fill="white">
<path d="M146.796 154.572H184.13V191.067H146.796V154.572Z"/>
</mask>
<path d="M146.796 191.067H147.216V154.572H146.796H146.377V191.067H146.796Z" fill="#0E0948" fill-opacity="0.06" mask="url(#path-22-inside-1_337_6699)"/>
<rect x="147.215" y="174.288" width="36.9141" height="0.419479" fill="#0E0948" fill-opacity="0.04"/>
</g>
<g clip-path="url(#clip11_337_6699)">
<g clip-path="url(#clip12_337_6699)">
<g clip-path="url(#clip13_337_6699)">
<path d="M275.92 186.872V147.441C275.92 145.472 274.324 143.875 272.355 143.875H229.167C227.832 143.875 226.531 143.465 225.438 142.7L220.515 139.254C219.351 138.439 217.966 138.003 216.546 138.003H205.238C203.269 138.003 201.672 139.599 201.672 141.568V186.872C201.672 188.841 203.269 190.438 205.238 190.438H272.355C274.324 190.438 275.92 188.841 275.92 186.872Z" stroke="#0E0948" stroke-opacity="0.04" stroke-width="0.419479"/>
<g filter="url(#filter7_di_337_6699)">
<path d="M201.882 141.568C201.882 139.715 203.384 138.212 205.238 138.212H216.545C217.922 138.212 219.266 138.636 220.394 139.426L225.317 142.872C226.446 143.662 227.789 144.085 229.166 144.085H272.354C274.208 144.085 275.71 145.588 275.71 147.441V186.872C275.71 188.725 274.208 190.228 272.354 190.228H205.238C203.384 190.228 201.882 188.725 201.882 186.872V141.568Z" fill="url(#paint13_linear_337_6699)"/>
</g>
</g>
</g>
</g>
<foreignObject x="196.848" y="149.958" width="83.8957" height="49.9179"><div xmlns="http://www.w3.org/1999/xhtml" style="backdrop-filter:blur(2.1px);clip-path:url(#bgblur_14_337_6699_clip_path);height:100%;width:100%"></div></foreignObject><g filter="url(#filter8_iii_337_6699)" data-figma-bg-blur-radius="4.19479">
<rect x="201.043" y="154.153" width="75.5062" height="37.3336" rx="3.35583" fill="url(#paint14_linear_337_6699)"/>
<rect x="201.043" y="154.153" width="75.5062" height="37.3336" rx="3.35583" fill="url(#paint15_radial_337_6699)"/>
<rect x="201.253" y="154.363" width="75.0867" height="36.9141" rx="3.14609" stroke="#E0E1E5" stroke-width="0.419479"/>
<mask id="path-29-inside-2_337_6699" fill="white">
<path d="M238.796 154.572H276.13V191.067H238.796V154.572Z"/>
</mask>
<path d="M238.796 191.067H239.216V154.572H238.796H238.377V191.067H238.796Z" fill="#0E0948" fill-opacity="0.06" mask="url(#path-29-inside-2_337_6699)"/>
<rect x="239.215" y="174.288" width="36.9141" height="0.419479" fill="#0E0948" fill-opacity="0.04"/>
</g>
</g>
</g>
</g>
<path d="M141.551 49.793H90.9912C87.7061 49.793 85.043 52.4561 85.043 55.7412C85.043 59.0263 87.7061 61.6894 90.9912 61.6894H141.551C144.836 61.6894 147.499 59.0263 147.499 55.7412C147.499 52.4561 144.836 49.793 141.551 49.793Z" fill="#708DFF"/>
<path d="M104.375 88.4565H89.5041C87.0403 88.4565 85.043 90.4539 85.043 92.9177C85.043 95.3816 87.0403 97.3789 89.5041 97.3789H104.375C106.839 97.3789 108.836 95.3816 108.836 92.9177C108.836 90.4539 106.839 88.4565 104.375 88.4565Z" fill="#ACBDFF"/>
<path d="M169.805 69.125H86.53C85.7087 69.125 85.043 69.7908 85.043 70.6121C85.043 71.4333 85.7087 72.0991 86.53 72.0991H169.805C170.627 72.0991 171.292 71.4333 171.292 70.6121C171.292 69.7908 170.627 69.125 169.805 69.125Z" fill="#22328A" fill-opacity="0.08"/>
<path d="M143.038 76.5601H86.53C85.7087 76.5601 85.043 77.2258 85.043 78.0471C85.043 78.8684 85.7087 79.5342 86.53 79.5342H143.038C143.86 79.5342 144.525 78.8684 144.525 78.0471C144.525 77.2258 143.86 76.5601 143.038 76.5601Z" fill="#22328A" fill-opacity="0.08"/>
<path d="M234.158 49.793H201.158C197.844 49.793 195.158 51.7331 195.158 54.1263V97.4596C195.158 99.8529 197.844 101.793 201.158 101.793H234.158C237.472 101.793 240.158 99.8529 240.158 97.4596V54.1263C240.158 51.7331 237.472 49.793 234.158 49.793Z" fill="#22328A" fill-opacity="0.04"/>
<path d="M287.292 49.793H255.025C251.785 49.793 249.158 51.7237 249.158 54.1055V114.48C249.158 116.862 251.785 118.793 255.025 118.793H287.292C290.532 118.793 293.158 116.862 293.158 114.48V54.1055C293.158 51.7237 290.532 49.793 287.292 49.793Z" fill="#22328A" fill-opacity="0.04"/>
<defs>
<clipPath id="bgblur_0_337_6699_clip_path" transform="translate(120.48 -51.4775)"><rect x="-116.762" y="55.1952" width="139.784" height="139.784" rx="11.1529"/>
</clipPath><clipPath id="bgblur_1_337_6699_clip_path" transform="translate(-44.5845 -51.4775)"><rect x="48.3021" y="55.1952" width="139.784" height="139.784" rx="11.1529"/>
</clipPath><clipPath id="bgblur_2_337_6699_clip_path" transform="translate(-209.647 -51.4775)"><rect x="213.365" y="55.1952" width="139.784" height="139.784" rx="11.1529"/>
</clipPath><clipPath id="bgblur_3_337_6699_clip_path" transform="translate(-374.711 -51.4775)"><rect x="378.429" y="55.1952" width="139.784" height="139.784" rx="11.1529"/>
</clipPath><filter id="filter4_dddii_337_6699" x="26.3536" y="2.47955e-05" width="333.101" height="255.774" filterUnits="userSpaceOnUse" color-interpolation-filters="sRGB">
<feFlood flood-opacity="0" result="BackgroundImageFix"/>
<feColorMatrix in="SourceAlpha" type="matrix" values="0 0 0 0 0 0 0 0 0 0 0 0 0 0 0 0 0 0 127 0" result="hardAlpha"/>
<feOffset dy="11.8965"/>
<feGaussianBlur stdDeviation="17.8447"/>
<feComposite in2="hardAlpha" operator="out"/>
<feColorMatrix type="matrix" values="0 0 0 0 0.0705882 0 0 0 0 0.027451 0 0 0 0 0.560784 0 0 0 0.08 0"/>
<feBlend mode="normal" in2="BackgroundImageFix" result="effect1_dropShadow_337_6699"/>
<feColorMatrix in="SourceAlpha" type="matrix" values="0 0 0 0 0 0 0 0 0 0 0 0 0 0 0 0 0 0 127 0" result="hardAlpha"/>
<feOffset dy="1.48706"/>
<feGaussianBlur stdDeviation="1.48706"/>
<feComposite in2="hardAlpha" operator="out"/>
<feColorMatrix type="matrix" values="0 0 0 0 0.054902 0 0 0 0 0.0352941 0 0 0 0 0.282353 0 0 0 0.08 0"/>
<feBlend mode="normal" in2="effect1_dropShadow_337_6699" result="effect2_dropShadow_337_6699"/>
<feColorMatrix in="SourceAlpha" type="matrix" values="0 0 0 0 0 0 0 0 0 0 0 0 0 0 0 0 0 0 127 0" result="hardAlpha"/>
<feMorphology radius="1.48706" operator="dilate" in="SourceAlpha" result="effect3_dropShadow_337_6699"/>
<feOffset/>
<feComposite in2="hardAlpha" operator="out"/>
<feColorMatrix type="matrix" values="0 0 0 0 0.054902 0 0 0 0 0.0352941 0 0 0 0 0.282353 0 0 0 0.04 0"/>
<feBlend mode="normal" in2="effect2_dropShadow_337_6699" result="effect3_dropShadow_337_6699"/>
<feBlend mode="normal" in="SourceGraphic" in2="effect3_dropShadow_337_6699" result="shape"/>
<feColorMatrix in="SourceAlpha" type="matrix" values="0 0 0 0 0 0 0 0 0 0 0 0 0 0 0 0 0 0 127 0" result="hardAlpha"/>
<feOffset dy="-4.46118"/>
<feGaussianBlur stdDeviation="2.23059"/>
<feComposite in2="hardAlpha" operator="arithmetic" k2="-1" k3="1"/>
<feColorMatrix type="matrix" values="0 0 0 0 0.0745098 0 0 0 0 0.152941 0 0 0 0 0.423529 0 0 0 0.04 0"/>
<feBlend mode="normal" in2="shape" result="effect4_innerShadow_337_6699"/>
<feColorMatrix in="SourceAlpha" type="matrix" values="0 0 0 0 0 0 0 0 0 0 0 0 0 0 0 0 0 0 127 0" result="hardAlpha"/>
<feOffset dy="-8.92235"/>
<feGaussianBlur stdDeviation="0.371765"/>
<feComposite in2="hardAlpha" operator="arithmetic" k2="-1" k3="1"/>
<feColorMatrix type="matrix" values="0 0 0 0 0.0745098 0 0 0 0 0.152941 0 0 0 0 0.427451 0 0 0 0.04 0"/>
<feBlend mode="normal" in2="effect4_innerShadow_337_6699" result="effect5_innerShadow_337_6699"/>
</filter>
<clipPath id="bgblur_5_337_6699_clip_path" transform="translate(-26.3536 -2.47955e-05)"><rect x="62.043" y="23.793" width="261.722" height="184.395" rx="11.8965"/>
</clipPath><filter id="filter5_di_337_6699" x="109.043" y="137.793" width="75.5062" height="53.6933" filterUnits="userSpaceOnUse" color-interpolation-filters="sRGB">
<feFlood flood-opacity="0" result="BackgroundImageFix"/>
<feColorMatrix in="SourceAlpha" type="matrix" values="0 0 0 0 0 0 0 0 0 0 0 0 0 0 0 0 0 0 127 0" result="hardAlpha"/>
<feOffset dy="0.419479"/>
<feGaussianBlur stdDeviation="0.419479"/>
<feComposite in2="hardAlpha" operator="out"/>
<feColorMatrix type="matrix" values="0 0 0 0 0.056512 0 0 0 0 0.0368 0 0 0 0 0.2832 0 0 0 0.08 0"/>
<feBlend mode="normal" in2="BackgroundImageFix" result="effect1_dropShadow_337_6699"/>
<feBlend mode="normal" in="SourceGraphic" in2="effect1_dropShadow_337_6699" result="shape"/>
<feColorMatrix in="SourceAlpha" type="matrix" values="0 0 0 0 0 0 0 0 0 0 0 0 0 0 0 0 0 0 127 0" result="hardAlpha"/>
<feOffset/>
<feGaussianBlur stdDeviation="0.838957"/>
<feComposite in2="hardAlpha" operator="arithmetic" k2="-1" k3="1"/>
<feColorMatrix type="matrix" values="0 0 0 0 0.056512 0 0 0 0 0.0368 0 0 0 0 0.2832 0 0 0 0.04 0"/>
<feBlend mode="normal" in2="shape" result="effect2_innerShadow_337_6699"/>
</filter>
<filter id="filter6_iii_337_6699" x="104.848" y="149.958" width="83.8957" height="49.9179" filterUnits="userSpaceOnUse" color-interpolation-filters="sRGB">
<feFlood flood-opacity="0" result="BackgroundImageFix"/>
<feBlend mode="normal" in="SourceGraphic" in2="BackgroundImageFix" result="shape"/>
<feColorMatrix in="SourceAlpha" type="matrix" values="0 0 0 0 0 0 0 0 0 0 0 0 0 0 0 0 0 0 127 0" result="hardAlpha"/>
<feMorphology radius="0.419479" operator="erode" in="SourceAlpha" result="effect1_innerShadow_337_6699"/>
<feOffset dy="8.38957"/>
<feGaussianBlur stdDeviation="5.8727"/>
<feComposite in2="hardAlpha" operator="arithmetic" k2="-1" k3="1"/>
<feColorMatrix type="matrix" values="0 0 0 0 1 0 0 0 0 1 0 0 0 0 1 0 0 0 0.5 0"/>
<feBlend mode="normal" in2="shape" result="effect1_innerShadow_337_6699"/>
<feColorMatrix in="SourceAlpha" type="matrix" values="0 0 0 0 0 0 0 0 0 0 0 0 0 0 0 0 0 0 127 0" result="hardAlpha"/>
<feMorphology radius="0.419479" operator="erode" in="SourceAlpha" result="effect2_innerShadow_337_6699"/>
<feOffset dy="-1.25844"/>
<feGaussianBlur stdDeviation="0.629218"/>
<feComposite in2="hardAlpha" operator="arithmetic" k2="-1" k3="1"/>
<feColorMatrix type="matrix" values="0 0 0 0 0.0745098 0 0 0 0 0.152941 0 0 0 0 0.423529 0 0 0 0.04 0"/>
<feBlend mode="normal" in2="effect1_innerShadow_337_6699" result="effect2_innerShadow_337_6699"/>
<feColorMatrix in="SourceAlpha" type="matrix" values="0 0 0 0 0 0 0 0 0 0 0 0 0 0 0 0 0 0 127 0" result="hardAlpha"/>
<feMorphology radius="0.419479" operator="erode" in="SourceAlpha" result="effect3_innerShadow_337_6699"/>
<feOffset dy="-2.51687"/>
<feGaussianBlur stdDeviation="0.10487"/>
<feComposite in2="hardAlpha" operator="arithmetic" k2="-1" k3="1"/>
<feColorMatrix type="matrix" values="0 0 0 0 0.0745098 0 0 0 0 0.152941 0 0 0 0 0.427451 0 0 0 0.04 0"/>
<feBlend mode="normal" in2="effect2_innerShadow_337_6699" result="effect3_innerShadow_337_6699"/>
</filter>
<clipPath id="bgblur_10_337_6699_clip_path" transform="translate(-104.848 -149.958)"><rect x="109.043" y="154.153" width="75.5062" height="37.3336" rx="3.35583"/>
</clipPath><filter id="filter7_di_337_6699" x="201.043" y="137.793" width="75.5062" height="53.6933" filterUnits="userSpaceOnUse" color-interpolation-filters="sRGB">
<feFlood flood-opacity="0" result="BackgroundImageFix"/>
<feColorMatrix in="SourceAlpha" type="matrix" values="0 0 0 0 0 0 0 0 0 0 0 0 0 0 0 0 0 0 127 0" result="hardAlpha"/>
<feOffset dy="0.419479"/>
<feGaussianBlur stdDeviation="0.419479"/>
<feComposite in2="hardAlpha" operator="out"/>
<feColorMatrix type="matrix" values="0 0 0 0 0.056512 0 0 0 0 0.0368 0 0 0 0 0.2832 0 0 0 0.08 0"/>
<feBlend mode="normal" in2="BackgroundImageFix" result="effect1_dropShadow_337_6699"/>
<feBlend mode="normal" in="SourceGraphic" in2="effect1_dropShadow_337_6699" result="shape"/>
<feColorMatrix in="SourceAlpha" type="matrix" values="0 0 0 0 0 0 0 0 0 0 0 0 0 0 0 0 0 0 127 0" result="hardAlpha"/>
<feOffset/>
<feGaussianBlur stdDeviation="0.838957"/>
<feComposite in2="hardAlpha" operator="arithmetic" k2="-1" k3="1"/>
<feColorMatrix type="matrix" values="0 0 0 0 0.056512 0 0 0 0 0.0368 0 0 0 0 0.2832 0 0 0 0.04 0"/>
<feBlend mode="normal" in2="shape" result="effect2_innerShadow_337_6699"/>
</filter>
<filter id="filter8_iii_337_6699" x="196.848" y="149.958" width="83.8957" height="49.9179" filterUnits="userSpaceOnUse" color-interpolation-filters="sRGB">
<feFlood flood-opacity="0" result="BackgroundImageFix"/>
<feBlend mode="normal" in="SourceGraphic" in2="BackgroundImageFix" result="shape"/>
<feColorMatrix in="SourceAlpha" type="matrix" values="0 0 0 0 0 0 0 0 0 0 0 0 0 0 0 0 0 0 127 0" result="hardAlpha"/>
<feMorphology radius="0.419479" operator="erode" in="SourceAlpha" result="effect1_innerShadow_337_6699"/>
<feOffset dy="8.38957"/>
<feGaussianBlur stdDeviation="5.8727"/>
<feComposite in2="hardAlpha" operator="arithmetic" k2="-1" k3="1"/>
<feColorMatrix type="matrix" values="0 0 0 0 1 0 0 0 0 1 0 0 0 0 1 0 0 0 0.5 0"/>
<feBlend mode="normal" in2="shape" result="effect1_innerShadow_337_6699"/>
<feColorMatrix in="SourceAlpha" type="matrix" values="0 0 0 0 0 0 0 0 0 0 0 0 0 0 0 0 0 0 127 0" result="hardAlpha"/>
<feMorphology radius="0.419479" operator="erode" in="SourceAlpha" result="effect2_innerShadow_337_6699"/>
<feOffset dy="-1.25844"/>
<feGaussianBlur stdDeviation="0.629218"/>
<feComposite in2="hardAlpha" operator="arithmetic" k2="-1" k3="1"/>
<feColorMatrix type="matrix" values="0 0 0 0 0.0745098 0 0 0 0 0.152941 0 0 0 0 0.423529 0 0 0 0.04 0"/>
<feBlend mode="normal" in2="effect1_innerShadow_337_6699" result="effect2_innerShadow_337_6699"/>
<feColorMatrix in="SourceAlpha" type="matrix" values="0 0 0 0 0 0 0 0 0 0 0 0 0 0 0 0 0 0 127 0" result="hardAlpha"/>
<feMorphology radius="0.419479" operator="erode" in="SourceAlpha" result="effect3_innerShadow_337_6699"/>
<feOffset dy="-2.51687"/>
<feGaussianBlur stdDeviation="0.10487"/>
<feComposite in2="hardAlpha" operator="arithmetic" k2="-1" k3="1"/>
<feColorMatrix type="matrix" values="0 0 0 0 0.0745098 0 0 0 0 0.152941 0 0 0 0 0.427451 0 0 0 0.04 0"/>
<feBlend mode="normal" in2="effect2_innerShadow_337_6699" result="effect3_innerShadow_337_6699"/>
</filter>
<clipPath id="bgblur_14_337_6699_clip_path" transform="translate(-196.848 -149.958)"><rect x="201.043" y="154.153" width="75.5062" height="37.3336" rx="3.35583"/>
</clipPath><linearGradient id="paint0_linear_337_6699" x1="139.493" y1="54.4517" x2="139.493" y2="155.572" gradientUnits="userSpaceOnUse">
<stop stop-color="#BAC8FF" stop-opacity="0.6"/>
<stop offset="1" stop-color="#E5EAFF" stop-opacity="0.6"/>
</linearGradient>
<radialGradient id="paint1_radial_337_6699" cx="0" cy="0" r="1" gradientUnits="userSpaceOnUse" gradientTransform="translate(139.493 54.4517) scale(65.404 55.7677)">
<stop stop-color="white" stop-opacity="0.1"/>
<stop offset="1" stop-color="white" stop-opacity="0"/>
</radialGradient>
<linearGradient id="paint2_linear_337_6699" x1="253.996" y1="54.4517" x2="253.996" y2="155.572" gradientUnits="userSpaceOnUse">
<stop stop-color="#DEE1EE" stop-opacity="0.5"/>
<stop offset="1" stop-color="#EDEEF3" stop-opacity="0.5"/>
</linearGradient>
<radialGradient id="paint3_radial_337_6699" cx="0" cy="0" r="1" gradientUnits="userSpaceOnUse" gradientTransform="translate(253.996 54.4517) scale(51.052 55.7677)">
<stop stop-color="white" stop-opacity="0.1"/>
<stop offset="1" stop-color="white" stop-opacity="0"/>
</radialGradient>
<linearGradient id="paint4_linear_337_6699" x1="-46.8706" y1="54.4517" x2="-46.8706" y2="195.722" gradientUnits="userSpaceOnUse">
<stop stop-color="#CED8FF" stop-opacity="0.1"/>
<stop offset="1" stop-color="#B6C5FF" stop-opacity="0.1"/>
</linearGradient>
<linearGradient id="paint5_linear_337_6699" x1="118.194" y1="54.4517" x2="118.194" y2="195.722" gradientUnits="userSpaceOnUse">
<stop stop-color="#CED8FF" stop-opacity="0.1"/>
<stop offset="1" stop-color="#B6C5FF" stop-opacity="0.1"/>
</linearGradient>
<linearGradient id="paint6_linear_337_6699" x1="283.256" y1="54.4517" x2="283.256" y2="195.722" gradientUnits="userSpaceOnUse">
<stop stop-color="#CED8FF" stop-opacity="0.1"/>
<stop offset="1" stop-color="#B6C5FF" stop-opacity="0.1"/>
</linearGradient>
<linearGradient id="paint7_linear_337_6699" x1="448.321" y1="54.4517" x2="448.321" y2="195.722" gradientUnits="userSpaceOnUse">
<stop stop-color="#CED8FF" stop-opacity="0.1"/>
<stop offset="1" stop-color="#B6C5FF" stop-opacity="0.1"/>
</linearGradient>
<linearGradient id="paint8_linear_337_6699" x1="192.904" y1="23.793" x2="192.904" y2="208.188" gradientUnits="userSpaceOnUse">
<stop stop-color="white" stop-opacity="0.7"/>
<stop offset="1" stop-color="white"/>
</linearGradient>
<linearGradient id="paint9_linear_337_6699" x1="192.904" y1="125.656" x2="192.904" y2="202.984" gradientUnits="userSpaceOnUse">
<stop stop-color="#22328A"/>
<stop offset="1" stop-color="#22328A" stop-opacity="0"/>
</linearGradient>
<linearGradient id="paint10_linear_337_6699" x1="146.796" y1="138.212" x2="146.796" y2="190.228" gradientUnits="userSpaceOnUse">
<stop stop-color="white" stop-opacity="0.5"/>
<stop offset="1" stop-color="white" stop-opacity="0.7"/>
</linearGradient>
<linearGradient id="paint11_linear_337_6699" x1="146.796" y1="154.153" x2="146.796" y2="191.486" gradientUnits="userSpaceOnUse">
<stop stop-color="#DBE2FF" stop-opacity="0.49"/>
<stop offset="1" stop-color="white" stop-opacity="0.7"/>
</linearGradient>
<radialGradient id="paint12_radial_337_6699" cx="0" cy="0" r="1" gradientUnits="userSpaceOnUse" gradientTransform="translate(146.796 154.153) scale(49.2678 30.3336)">
<stop stop-color="white" stop-opacity="0.5"/>
<stop offset="1" stop-color="white" stop-opacity="0"/>
</radialGradient>
<linearGradient id="paint13_linear_337_6699" x1="238.796" y1="138.212" x2="238.796" y2="190.228" gradientUnits="userSpaceOnUse">
<stop stop-color="white" stop-opacity="0.5"/>
<stop offset="1" stop-color="white" stop-opacity="0.7"/>
</linearGradient>
<linearGradient id="paint14_linear_337_6699" x1="238.796" y1="154.153" x2="238.796" y2="191.486" gradientUnits="userSpaceOnUse">
<stop stop-color="#DBE2FF" stop-opacity="0.49"/>
<stop offset="1" stop-color="white" stop-opacity="0.7"/>
</linearGradient>
<radialGradient id="paint15_radial_337_6699" cx="0" cy="0" r="1" gradientUnits="userSpaceOnUse" gradientTransform="translate(238.796 154.153) scale(49.2678 30.3336)">
<stop stop-color="white" stop-opacity="0.5"/>
<stop offset="1" stop-color="white" stop-opacity="0"/>
</radialGradient>
<clipPath id="clip4_337_6699">
<rect x="62.043" y="23.793" width="261.722" height="184.395" rx="11.8965" fill="white"/>
</clipPath>
<clipPath id="clip6_337_6699">
<rect width="237.929" height="173.986" fill="white" transform="translate(73.9393 28.9976)"/>
</clipPath>
<clipPath id="clip7_337_6699">
<rect width="75.5062" height="53.6933" fill="white" transform="translate(109.043 137.793)"/>
</clipPath>
<clipPath id="clip8_337_6699">
<rect width="75.5062" height="53.6933" fill="white" transform="translate(109.043 137.793)"/>
</clipPath>
<clipPath id="clip9_337_6699">
<rect width="75.5062" height="53.6933" fill="white" transform="translate(109.043 137.793)"/>
</clipPath>
<clipPath id="clip11_337_6699">
<rect width="75.5062" height="53.6933" fill="white" transform="translate(201.043 137.793)"/>
</clipPath>
<clipPath id="clip12_337_6699">
<rect width="75.5062" height="53.6933" fill="white" transform="translate(201.043 137.793)"/>
</clipPath>
<clipPath id="clip13_337_6699">
<rect width="75.5062" height="53.6933" fill="white" transform="translate(201.043 137.793)"/>
</clipPath>
</defs>
</svg>
