<svg width="336" height="232" viewBox="0 0 336 232" fill="none" xmlns="http://www.w3.org/2000/svg">
<g style="mix-blend-mode:plus-lighter">
<path d="M5.57574 67.2838L51.721 113.486C52.9867 114.753 52.9867 116.842 51.721 118.109L5.57574 164.311C3.52332 166.366 0 164.927 0 161.982L0 69.5785C0 66.6673 3.52332 65.1946 5.57574 67.2495V67.2838Z" fill="#0033FA"/>
<path d="M247.005 0L247.005 231.568C298.424 218.201 336 171.798 336 115.784C336 59.7694 298.424 13.3663 247.005 0Z" fill="#0033FA"/>
<path d="M150.746 20.8867L150.746 210.681C192.715 199.724 223.395 161.703 223.395 115.801C223.395 69.8994 192.75 31.8783 150.746 20.9213V20.8867Z" fill="#0033FA"/>
<path d="M73.5568 42.6816L73.5568 188.887C106.092 180.454 129.859 151.144 129.859 115.801C129.859 80.4585 106.092 51.1489 73.5568 42.7159V42.6816Z" fill="#0033FA"/>
</g>
</svg>
